<svg xmlns="http://www.w3.org/2000/svg" version="1.1" xmlns:xlink="http://www.w3.org/1999/xlink" xmlns:svgjs="http://svgjs.dev/svgjs" viewBox="0 0 1920 1080" class="overflow-hidden rounded-md drop-shadow-lg transition duration-300" style="overflow: hidden; height: 85vh;"><rect width="1920" height="1080" fill="#16a085"/><g clip-path="url(&quot;#SvgjsClipPath1417&quot;)"><g transform="matrix(1.15,0,0,1.15,-140.4551485061645,-81)"><path d="M0,-1080C-0.3346449764428148,-964.7730631241221,5.001332190492124,-609.006021708759,-2.007869858656889,-388.6383787447329C-9.017071907805903,-168.2707357807068,-35.29785049512587,28.218603936710906,-42.055212294894076,242.20585778415668C-48.81257409466228,456.19311163160245,-49.01488118079393,689.9904625691869,-42.55204065726613,895.2851443399417C-36.08920013373834,1100.5798261106966,-10.370175929938327,1263.1881391320092,-3.2781691537273048,1473.9739484086856C3.8138376224837174,1684.759757685362,-0.5463615256212174,2045.662324734781,0,2160L 1920 2160 L 1920 -1080 Z" fill="url(&quot;#SvgjsLinearGradient1413&quot;)"/><path d="M480,-1080C470.08788549516703,-992.8702519985505,414.62880926285465,-719.293883676217,420.52731297100223,-557.221511991303C426.4258166791498,-395.1491403063891,506.13165097864567,-244.9059258199982,515.3910222488855,-107.56576989051604C524.6503935191254,29.774386038966128,482.7947296272088,109.32317749921359,476.0835405924415,266.81942358558985C469.3723515576742,424.31566967196613,470.1444088487217,675.2136118555612,475.1238880402816,837.4117066277416C480.1033672318415,999.609801399922,494.1808559235387,1096.856962766354,505.96041574180106,1240.0079922186721C517.7399755600634,1383.1590216709903,550.1279829068228,1542.985882044763,545.8012469498559,1696.317883341651C541.474510992889,1849.6498846385389,490.96687449164267,2082.7196472236083,480,2160L 1920 2160 L 1920 -1080 Z" fill="url(&quot;#SvgjsLinearGradient1414&quot;)"/><path d="M960,-1080C959.7122562746068,-1005.7746924627991,950.1547607564473,-800.5313497168054,958.2735376476412,-634.6481547767943C966.3923145388351,-468.7649598367832,1007.0111395342717,-232.80719398482213,1008.7126613471629,-84.70083035993332C1010.4141831600541,63.405533264955494,978.1812936881755,99.38584849134028,968.4826685249884,253.9900269725386C958.7840433618013,408.5942054537369,957.8197563150992,667.8213033155633,950.5209103680405,842.9242405272566C943.2220644209818,1018.02717773895,930.3270048872827,1152.1342916297156,924.6895928426362,1304.6076502426984C919.0521807979898,1457.0810088556811,910.8113702406009,1615.199000578936,916.6964381001616,1757.764392205153C922.5815059597222,1900.32978383137,952.7827396833602,2092.960732034192,960,2160L 1920 2160 L 1920 -1080 Z" fill="url(&quot;#SvgjsLinearGradient1415&quot;)"/><path d="M1440,-1080C1435.8780822882634,-972.1695814683021,1420.422539273356,-639.2937095205559,1415.2684937295805,-433.01748880981256C1410.114448185805,-226.74126809906917,1396.935417344247,-48.7413737003242,1409.0757267373467,157.65732426446027C1421.2160361304464,364.0560222292447,1473.04248845488,579.3152214662672,1488.1103500881788,805.3746989788943C1503.1782117214777,1031.4341764915216,1507.5012882185038,1288.2433058367058,1499.4828965371405,1514.0141893402233C1491.4645048557772,1739.7850728437409,1449.9138160895234,2052.3356982233704,1440,2160L 1920 2160 L 1920 -1080 Z" fill="url(&quot;#SvgjsLinearGradient1416&quot;)"/></g></g><defs><linearGradient x1="0.1" y1="0" x2="0" y2="1" id="SvgjsLinearGradient1413"><stop stop-color="#16a085" offset="0"/><stop stop-color="#16a06e" offset="0"/></linearGradient><linearGradient x1="0.1" y1="0" x2="0" y2="1" id="SvgjsLinearGradient1414"><stop stop-color="#1eddb8" offset="0"/><stop stop-color="#1edd98" offset="0.25"/></linearGradient><linearGradient x1="0.1" y1="0" x2="0" y2="1" id="SvgjsLinearGradient1415"><stop stop-color="#59e8cc" offset="0"/><stop stop-color="#59e8b4" offset="0.5"/></linearGradient><linearGradient x1="0.1" y1="0" x2="0" y2="1" id="SvgjsLinearGradient1416"><stop stop-color="#96f1df" offset="0"/><stop stop-color="#96f1d0" offset="0.75"/></linearGradient><clipPath id="SvgjsClipPath1417"><rect width="1920" height="1080"/></clipPath></defs></svg>